<?xml version="1.0" encoding="UTF-8" standalone="no"?>
<!DOCTYPE svg PUBLIC "-//W3C//DTD SVG 20010904//EN"
              "http://www.w3.org/TR/2001/REC-SVG-20010904/DTD/svg10.dtd">

<svg xmlns="http://www.w3.org/2000/svg"
     width="0.416in" height="0.416in"
     viewBox="0 0 200 200">
  <path id="Selection #3"
        fill="#0091FF" stroke="black" stroke-width="0"
        d="M 86.00,0.44
           C 121.26,-4.08 158.28,10.21 179.58,39.04
             213.87,85.48 202.16,158.78 150.00,187.21
             129.82,198.21 115.57,200.26 93.00,200.00
             84.57,199.90 76.01,197.85 68.00,195.34
             11.17,177.53 -14.33,113.79 7.45,60.00
             18.25,33.35 42.55,12.00 70.00,3.77
             70.00,3.77 86.00,0.44 86.00,0.44 Z
           M 182.00,84.00
           C 182.00,79.59 182.84,65.77 180.16,62.64
             177.60,59.65 166.08,57.66 162.00,57.15
             145.13,55.08 120.45,55.99 111.19,73.00
             109.03,76.97 109.14,79.72 108.58,84.00
             108.04,88.09 107.93,89.96 109.22,94.00
             113.82,108.39 128.07,111.41 141.00,114.35
             146.19,115.53 154.06,117.04 157.68,121.21
             162.10,126.31 156.75,130.54 152.00,132.15
             145.01,134.52 132.80,132.36 126.00,129.77
             126.00,129.77 107.00,121.00 107.00,121.00
             107.00,121.00 107.00,133.00 107.00,133.00
             107.01,136.27 106.73,140.90 108.85,143.58
             112.31,147.96 128.34,149.97 134.00,150.27
             143.67,151.30 141.24,150.79 150.00,150.27
             168.89,148.57 183.99,142.28 185.68,121.00
             187.26,101.01 167.22,95.70 152.00,91.89
             147.08,90.66 138.83,89.81 135.55,85.66
             134.14,83.88 133.87,82.09 134.92,80.04
             138.04,73.98 146.19,73.94 152.00,74.00
             163.06,74.13 171.87,80.48 182.00,84.00 Z
           M 45.00,120.00
           C 55.98,120.00 71.38,120.35 80.96,114.40
             97.22,104.29 101.96,77.06 85.98,64.53
             79.86,59.72 74.26,59.57 67.00,58.58
             67.00,58.58 20.00,58.00 20.00,58.00
             20.00,58.00 20.00,149.00 20.00,149.00
             20.00,149.00 45.00,149.00 45.00,149.00
             45.00,149.00 45.00,120.00 45.00,120.00 Z
           M 45.00,76.00
           C 50.07,76.00 60.63,75.32 64.90,77.57
             71.86,81.35 73.85,93.36 64.90,99.28
             59.78,102.75 51.10,102.00 45.00,102.00
             45.00,102.00 45.00,76.00 45.00,76.00 Z" />
	<path id="Selection #1"
        fill="#ffffff" stroke="black" stroke-width="0"
        d="M 106.88,120.38
           C 114.02,121.14 117.58,126.28 124.00,129.21
             129.84,131.87 135.62,132.97 142.00,133.00
             147.86,133.03 154.63,133.43 158.40,127.90
             159.41,126.41 159.88,124.82 159.34,123.04
             157.54,117.01 146.29,115.27 141.00,114.20
             126.03,111.16 108.34,107.32 108.12,89.12
             108.08,85.11 107.91,79.47 109.25,75.62
             115.55,57.51 139.50,55.68 155.50,56.38
             160.65,56.60 178.09,58.76 181.50,62.50
             182.62,65.12 181.50,78.73 181.50,83.50
             170.68,82.35 166.50,74.17 153.00,74.00
             146.99,73.93 138.68,73.35 134.86,79.19
             133.68,81.14 133.58,82.89 134.86,84.90
             137.74,89.77 150.04,91.12 155.25,92.25
             165.75,95.62 179.39,97.18 184.38,109.50
             186.05,113.64 186.55,118.65 185.88,123.00
             182.06,147.60 161.65,150.50 141.25,151.25
             133.42,151.54 125.52,149.55 118.00,147.42
             115.24,146.64 109.18,145.51 107.25,143.25
             106.50,140.25 106.88,125.46 106.88,120.38 Z" />
	<path id="Selection"
        fill="#ffffff" stroke="black" stroke-width="0"
        d="M 20.00,58.00
           C 20.00,58.00 68.12,58.00 68.12,58.00
             75.13,58.84 77.63,58.51 83.88,62.88
             101.79,75.41 98.74,103.75 81.62,115.00
             72.07,121.28 56.15,120.00 45.00,120.00
             45.00,120.00 45.00,149.00 45.00,149.00
             45.00,149.00 20.00,149.00 20.00,149.00
             20.00,149.00 20.00,58.00 20.00,58.00 Z
           M 45.00,102.00
           C 45.00,102.00 52.00,102.00 52.00,102.00
             55.38,101.99 58.73,102.04 62.00,101.06
             64.71,100.24 67.12,98.90 68.88,96.62
             73.14,91.09 73.59,82.52 65.91,78.01
             63.20,76.24 60.98,75.74 57.12,75.12
             54.35,74.72 48.00,74.88 45.50,75.25
             44.24,76.84 45.00,82.01 45.00,84.00
             45.00,84.00 45.00,102.00 45.00,102.00 Z
           M 129.75,142.62" />
</svg>
